<?xml version="1.0" encoding="UTF-8"?>
<svg id="Objects" xmlns="http://www.w3.org/2000/svg" viewBox="0 0 800 800">
  <defs>
    <style>
      .cls-1 {
        fill: #216dbf;
      }

      .cls-1, .cls-2 {
        stroke-width: 0px;
      }

      .cls-2 {
        fill: #fff;
      }
    </style>
  </defs>
  <path class="cls-1" d="m339.11,192.64h121.77c11.92,0,21.6,9.68,21.6,21.6v47.79c0,11.92-9.68,21.6-21.6,21.6h-121.77c-11.92,0-21.6-9.68-21.6-21.6v-47.79c0-11.92,9.68-21.6,21.6-21.6Z"/>
  <polygon class="cls-2" points="422.33 232.81 405.33 232.81 405.33 215.81 394.67 215.81 394.67 232.81 377.67 232.81 377.67 243.47 394.67 243.47 394.67 260.47 405.33 260.47 405.33 243.47 422.33 243.47 422.33 232.81"/>
  <g>
    <path class="cls-1" d="m307.16,325.53c.1.23.18.46.28.69,4.51,10.17,12.49,17.74,20.89,20.07,6.47,14.82,16.1,27.39,27.96,36.46,13.02,9.96,28.13,15.22,43.71,15.22s30.7-5.26,43.71-15.22c11.87-9.08,21.5-21.65,27.96-36.46,8.4-2.33,16.37-9.9,20.89-20.06.1-.23.18-.46.28-.69-1.52-.32-3.17-.58-4.92-.78-2.04,3.03-5.46,4.96-9.24,5.06-3.35,4-7.38,6.66-11.23,7.15l-2.9.37-1.1,2.71c-12,29.56-36.31,47.93-63.45,47.93s-51.46-18.37-63.46-47.93l-1.1-2.71-2.91-.37c-3.85-.49-7.88-3.15-11.23-7.15-3.77-.1-7.19-2.02-9.23-5.06-1.75.19-3.4.46-4.92.78Z"/>
    <path class="cls-1" d="m312.26,311.66c.45-.64.98-1.22,1.55-1.75,0-1.35.09-2.66.31-3.9.42-2.42,1.69-6.74,5.38-8.37.91-.4,1.92-.61,2.99-.61.5,0,1.01.04,1.54.13l5.28.86.5-5.33c4.04-43.26,34.22-75.88,70.2-75.88s66.15,32.62,70.19,75.88l.5,5.33,5.28-.86c1.67-.27,3.2-.11,4.53.48,3.69,1.64,4.95,5.95,5.37,8.37.22,1.24.32,2.55.31,3.9.57.53,1.09,1.11,1.55,1.75,2.62.24,5.46.63,8.31,1.27.26-2.97.17-5.89-.31-8.65-1.31-7.46-5.38-13.21-11.16-15.78-1.56-.7-3.22-1.15-4.94-1.35-6.21-46.12-39.77-80.34-79.63-80.34s-73.42,34.22-79.63,80.34c-1.72.2-3.38.65-4.94,1.35-5.79,2.57-9.86,8.32-11.17,15.78-.48,2.76-.57,5.67-.31,8.64,2.84-.63,5.68-1.03,8.31-1.27Z"/>
  </g>
  <path class="cls-1" d="m470.5,541.11c-9.4,0-17.29,6.44-19.53,15.14-16.36-4.03-35.86-13.84-55.28-24.05,5.98-15.15,7.8-27,8.35-33.51,25.29-1.32,44.71-15.08,56.35-40.01,8.97-19.22,10.07-38.18,10.11-38.98.12-2.16-1.04-4.1-2.81-5.09.59-5.67,2.86-15.75,11.22-25.48,2.92-3.4,6.15-6.78,9.27-10.06,12.34-12.93,25.09-26.3,24.94-45.78-.03-3.92-1.5-7.3-4.36-10.05-6.02-5.8-17.01-7.35-23.46-7.75-.79-1.93-2.37-3.52-4.49-4.25-3.92-1.34-8.18.74-9.52,4.65-1.35,3.92.74,8.18,4.65,9.52,3.91,1.34,8.18-.74,9.52-4.65.03-.08.04-.16.07-.24,5.8.4,15.04,1.77,19.76,6.32,1.88,1.81,2.8,3.93,2.82,6.49.13,17.46-11.37,29.52-23.56,42.29-3.17,3.32-6.44,6.75-9.45,10.25-9.43,10.97-11.88,22.22-12.47,28.57-1.76.84-3.02,2.58-3.13,4.67,0,.18-1.07,17.89-9.22,35.19-10.47,22.23-27.39,33.51-50.3,33.51s-39.83-11.27-50.3-33.51c-8.15-17.3-9.21-35.02-9.22-35.19-.11-2.08-1.37-3.83-3.13-4.67-.58-6.35-3.03-17.6-12.47-28.58-3-3.5-6.28-6.93-9.45-10.25-12.18-12.77-23.69-24.84-23.56-42.29.02-2.55.94-4.68,2.82-6.49,4.72-4.55,13.96-5.91,19.76-6.32.02.08.04.16.07.24,1.35,3.92,5.61,6,9.52,4.65,3.92-1.34,6-5.61,4.65-9.52-1.34-3.91-5.61-6-9.52-4.65-2.12.73-3.7,2.32-4.49,4.24-6.45.4-17.44,1.95-23.46,7.75-2.86,2.75-4.32,6.14-4.35,10.05-.15,19.48,12.6,32.85,24.94,45.78,3.12,3.28,6.35,6.66,9.28,10.06,8.36,9.73,10.64,19.82,11.22,25.48-1.77.99-2.93,2.93-2.81,5.09.04.8,1.14,19.76,10.11,38.98,11.79,25.27,31.58,39.06,57.37,40.06-.59,5.97-2.34,16.62-7.57,30.14-.24-.13-.49-.26-.73-.39-24.3-12.85-47.25-24.98-64.19-26.74-19.64-2.04-34.58,1.81-44.38,11.46-11.33,11.14-15.91,30.18-13.62,56.57,1.64,18.83,11.33,31.59,27.3,35.96,3.99,1.09,8.25,1.61,12.67,1.61,23.89,0,52.49-15.24,68.84-38.13,7.8-10.93,13.51-21.25,17.68-30.55,20.01,10.51,40.12,20.57,57.44,24.63,1,10.21,9.62,18.2,20.09,18.2,11.15,0,20.2-9.04,20.2-20.2s-9.04-20.2-20.2-20.2Zm-100.92,24.05c-17.81,24.94-50.98,40.11-73.96,33.84-13.12-3.59-20.79-13.89-22.17-29.81-2.11-24.22,1.78-41.37,11.55-50.98,6.81-6.7,16.49-10,29.41-10,2.94,0,6.06.17,9.34.51,15.59,1.62,37.96,13.45,61.64,25.97.44.23.87.46,1.31.69-4,9.05-9.52,19.13-17.13,29.78Z"/>
  <circle class="cls-2" cx="470.5" cy="561.3" r="13.57"/>
</svg>